<svg width="24" height="24" viewBox="0 0 24 24" fill="none" xmlns="http://www.w3.org/2000/svg">
<path fill-rule="evenodd" clip-rule="evenodd" d="M3.4 11.1369C3.4 7.43505 6.49428 4.4 10.354 4.4C14.2137 4.4 17.308 7.43505 17.308 11.1369C17.308 14.8387 14.2137 17.8737 10.354 17.8737C6.49428 17.8737 3.4 14.8387 3.4 11.1369ZM10.354 3C5.75933 3 2 6.62414 2 11.1369C2 15.6496 5.75933 19.2737 10.354 19.2737C12.5255 19.2737 14.5105 18.4642 16.0001 17.1339C16.0036 17.3084 16.0719 17.4818 16.205 17.6149L20.205 21.6149C20.4784 21.8883 20.9216 21.8883 21.195 21.6149C21.4683 21.3415 21.4683 20.8983 21.195 20.6249L17.195 16.6249C17.0604 16.4904 16.8846 16.422 16.7082 16.42C17.9538 15.0011 18.708 13.1581 18.708 11.1369C18.708 6.62414 14.9486 3 10.354 3Z" fill="#E7342C"/>
</svg>
