<svg width="24" height="24" viewBox="0 0 24 24" fill="none" xmlns="http://www.w3.org/2000/svg">
<path fill-rule="evenodd" clip-rule="evenodd" d="M19.5152 8.2974L12.285 3.52112L5.23852 8.26229C5.24458 8.29933 5.24773 8.33735 5.24773 8.3761V19.1914C5.24773 19.9093 5.82976 20.4914 6.54773 20.4914H18.2108C18.9288 20.4914 19.5108 19.9093 19.5108 19.1914V8.3761C19.5108 8.3495 19.5123 8.32324 19.5152 8.2974ZM20.9108 9.21936L22.673 10.3835C22.9956 10.5966 23.4298 10.5078 23.6429 10.1852C23.856 9.86267 23.7672 9.42843 23.4447 9.21534L12.7229 2.1325C12.4535 1.95448 12.1034 1.95596 11.8354 2.13626L1.3093 9.21863C0.98855 9.43444 0.903481 9.86942 1.1193 10.1902C1.33511 10.5109 1.77009 10.596 2.09084 10.3802L3.84773 9.19807V19.1914C3.84773 20.6825 5.05656 21.8914 6.54773 21.8914H18.2108C19.702 21.8914 20.9108 20.6825 20.9108 19.1914V9.21936Z" fill="#E7342C"/>
</svg>
