<svg width="24" height="24" viewBox="0 0 24 24" fill="none" xmlns="http://www.w3.org/2000/svg">
<path fill-rule="evenodd" clip-rule="evenodd" d="M15.8396 7.17694C15.8396 9.26289 14.1486 10.9539 12.0627 10.9539C9.9767 10.9539 8.28571 9.26289 8.28571 7.17694C8.28571 5.09099 9.9767 3.4 12.0627 3.4C14.1486 3.4 15.8396 5.09099 15.8396 7.17694ZM17.2396 7.17694C17.2396 10.0361 14.9218 12.3539 12.0627 12.3539C9.20351 12.3539 6.88571 10.0361 6.88571 7.17694C6.88571 4.3178 9.20351 2 12.0627 2C14.9218 2 17.2396 4.3178 17.2396 7.17694ZM18.3769 11.4302C18.087 11.1744 17.6446 11.2021 17.3889 11.4919C17.1331 11.7818 17.1607 12.2242 17.4506 12.48C19.6905 14.4563 19.896 17.0849 19.6888 18.4269C19.6853 18.4496 19.6649 18.4972 19.5998 18.5366C13.3012 22.3426 7.13121 20.2744 4.50441 18.5729C4.45603 18.5416 4.42872 18.4938 4.42426 18.443C4.18471 15.7163 5.79176 13.3194 6.66113 12.4501C6.9345 12.1767 6.9345 11.7335 6.66113 11.4601C6.38777 11.1867 5.94455 11.1867 5.67118 11.4601C4.6374 12.4939 2.74051 15.2745 3.02963 18.5655C3.07242 19.0526 3.33842 19.4857 3.74328 19.7479C6.66254 21.6389 13.4254 23.9033 20.3238 19.7348C20.6971 19.5093 20.9978 19.1239 21.0725 18.6404C21.3281 16.9843 21.0795 13.8148 18.3769 11.4302Z" fill="#1A1A1A"/>
</svg>
