<svg width="24" height="24" viewBox="0 0 24 24" fill="none" xmlns="http://www.w3.org/2000/svg">
<path fill-rule="evenodd" clip-rule="evenodd" d="M15.8397 7.17694C15.8397 9.26289 14.1487 10.9539 12.0627 10.9539C9.9768 10.9539 8.28581 9.26289 8.28581 7.17694C8.28581 5.09099 9.9768 3.4 12.0627 3.4C14.1487 3.4 15.8397 5.09099 15.8397 7.17694ZM17.2397 7.17694C17.2397 10.0361 14.9219 12.3539 12.0627 12.3539C9.2036 12.3539 6.88581 10.0361 6.88581 7.17694C6.88581 4.3178 9.2036 2 12.0627 2C14.9219 2 17.2397 4.3178 17.2397 7.17694ZM18.377 11.4302C18.0871 11.1744 17.6447 11.2021 17.389 11.4919C17.1332 11.7818 17.1608 12.2242 17.4507 12.48C19.6905 14.4563 19.8961 17.0849 19.6889 18.4269C19.6854 18.4496 19.665 18.4972 19.5999 18.5366C13.3013 22.3426 7.13131 20.2744 4.5045 18.5729C4.45613 18.5416 4.42882 18.4938 4.42435 18.443C4.18481 15.7163 5.79186 13.3194 6.66123 12.4501C6.9346 12.1767 6.9346 11.7335 6.66123 11.4601C6.38786 11.1867 5.94465 11.1867 5.67128 11.4601C4.6375 12.4939 2.7406 15.2745 3.02972 18.5655C3.07252 19.0526 3.33851 19.4857 3.74338 19.7479C6.66263 21.6389 13.4255 23.9033 20.3239 19.7348C20.6972 19.5093 20.9979 19.1239 21.0725 18.6404C21.3282 16.9843 21.0796 13.8148 18.377 11.4302Z" fill="#E7342C"/>
</svg>
