<svg width="24" height="24" viewBox="0 0 24 24" fill="none" xmlns="http://www.w3.org/2000/svg">
<path fill-rule="evenodd" clip-rule="evenodd" d="M21.1892 5H2.81081C2.36301 5 2 5.3134 2 5.7C2 6.0866 2.36301 6.4 2.81081 6.4H21.1892C21.637 6.4 22 6.0866 22 5.7C22 5.3134 21.637 5 21.1892 5ZM21.1892 10.9999H2.81081C2.36301 10.9999 2 11.3133 2 11.6999C2 12.0865 2.36301 12.3999 2.81081 12.3999H21.1892C21.637 12.3999 22 12.0865 22 11.6999C22 11.3133 21.637 10.9999 21.1892 10.9999ZM2.81081 17H21.1892C21.637 17 22 17.3134 22 17.7C22 18.0866 21.637 18.4 21.1892 18.4H2.81081C2.36301 18.4 2 18.0866 2 17.7C2 17.3134 2.36301 17 2.81081 17Z" fill="#1A1A1A"/>
</svg>
