<svg width="24" height="24" viewBox="0 0 24 24" fill="none" xmlns="http://www.w3.org/2000/svg">
<path fill-rule="evenodd" clip-rule="evenodd" d="M12.6163 2.00308C11.3582 1.96115 9.49988 2.33939 7.93132 3.60856C6.33477 4.90038 5.11102 7.05667 5.06518 10.4192L5.06511 10.4192V10.4288V14.7831C5.06511 14.8297 5.05425 14.8757 5.03337 14.9174L4.18207 16.6178C3.61613 17.7481 4.43805 19.0788 5.7022 19.0788H9.31474C9.45352 19.4588 9.67865 19.876 10.0143 20.2483C10.5571 20.8504 11.3784 21.3195 12.5163 21.3195C14.4333 21.3195 15.4893 20.0277 15.9313 19.0788H19.231C20.5832 19.0788 21.3941 17.5767 20.6524 16.4462L19.6282 14.8853C19.5961 14.8364 19.579 14.7792 19.579 14.7207V10.4553C19.6725 9.18752 19.4469 7.2797 18.4569 5.58067C17.4394 3.83447 15.6327 2.34704 12.6728 2.00726C12.6541 2.00511 12.6352 2.00371 12.6163 2.00308ZM14.2943 19.0788H10.8737C10.9268 19.1581 10.9868 19.2362 11.0541 19.3108C11.3527 19.642 11.8054 19.9195 12.5163 19.9195C13.3433 19.9195 13.9237 19.5248 14.2943 19.0788ZM6.46511 14.7831V10.4336C6.50703 7.43904 7.57683 5.69627 8.81194 4.69691C10.0638 3.68397 11.5596 3.37537 12.5419 3.40147C15.0265 3.69474 16.4453 4.90926 17.2473 6.28553C18.0725 7.70172 18.2628 9.32779 18.1811 10.3743C18.1797 10.3924 18.179 10.4106 18.179 10.4288V14.7207C18.179 15.0521 18.2758 15.3762 18.4576 15.6533L19.4818 17.2143C19.6127 17.4138 19.4696 17.6788 19.231 17.6788H5.7022C5.47911 17.6788 5.33407 17.444 5.43394 17.2445L6.28524 15.5442C6.40353 15.3079 6.46511 15.0473 6.46511 14.7831Z" fill="#E7342C"/>
</svg>
