<svg width="20" height="20" viewBox="0 0 20 20" fill="none" xmlns="http://www.w3.org/2000/svg">
<path d="M2.75126 3.63788C4.66533 1.65593 7.71659 1.56918 9.73021 3.37762L9.86074 3.49942L9.88166 3.52007C9.94753 3.58529 10.0512 3.58549 10.1173 3.52054L10.17 3.4696C12.1814 1.56681 15.3028 1.62291 17.2487 3.63788C19.2504 5.71055 19.2504 9.07102 17.2487 11.1437L11.2081 17.3985C10.5409 18.0894 9.45911 18.0894 8.79188 17.3985L2.75126 11.1437C0.749579 9.07102 0.749579 5.71055 2.75126 3.63788ZM3.65735 4.57611C2.1829 6.10285 2.15657 8.56126 3.57837 10.1213L3.65735 10.2055L9.69797 16.4603C9.85286 16.6207 10.0971 16.6322 10.2648 16.4947L10.302 16.4603L16.3426 10.2055C17.8439 8.65096 17.8439 6.13061 16.3426 4.57611C14.8682 3.04936 12.494 3.0221 10.9874 4.49432L10.9061 4.57611L10.1305 5.37916C10.0644 5.44764 9.95738 5.44833 9.89042 5.3807L9.02353 4.50502C7.51534 3.01937 5.13281 3.04833 3.65735 4.57611Z" fill="white"/>
</svg>
