<?xml version="1.0" encoding="utf-8"?>
<!-- Generator: Adobe Illustrator 26.5.0, SVG Export Plug-In . SVG Version: 6.00 Build 0)  -->
<svg version="1.1" id="레이어_1" xmlns="http://www.w3.org/2000/svg" xmlns:xlink="http://www.w3.org/1999/xlink" x="0px"
	 y="0px" viewBox="0 0 24 24" style="enable-background:new 0 0 24 24;" xml:space="preserve">
<style type="text/css">
	.st0{fill:none;}
	.st1{clip-path:url(#SVGID_00000050643547234416167190000014522131710594133408_);}
	.st2{fill:#231815;}
</style>
<rect y="0" class="st0" width="24" height="24"/>
<g>
	<defs>
		<rect id="SVGID_1_" x="1.5" y="2.5" width="21" height="19"/>
	</defs>
	<clipPath id="SVGID_00000084492641818789881310000014242971902104746930_">
		<use xlink:href="#SVGID_1_"  style="overflow:visible;"/>
	</clipPath>
	<g style="clip-path:url(#SVGID_00000084492641818789881310000014242971902104746930_);">
		<path class="st2" d="M20,8.1c-0.3-0.6-0.6-1.2-1-1.7c-0.6-0.8-1.3-1.5-2.1-2.1c-1.7-1.2-3.7-1.9-5.7-1.9c-1.3,0-2.6,0.3-3.8,0.7
			c-1.1,0.5-2.2,1.2-3.1,2C3.4,6,2.7,7,2.2,8.1C1.8,9.5,1.5,10.7,1.5,12s0.3,2.5,0.8,3.7c0.5,1.1,1.2,2.1,2.1,3
			c0.9,0.9,1.9,1.6,3.1,2c1.2,0.5,2.5,0.7,3.8,0.7c1.1,0,2.2-0.2,3.2-0.5s1.9-0.8,2.7-1.5c1.7-1.3,2.9-3.1,3.4-5.1l0.2-0.8l-1.6-0.4
			L18.9,14c-0.9,3.5-4.1,5.9-7.8,5.9c-4.4,0-8-3.5-8-7.9c0-4.3,3.6-7.9,8-7.9c3.2,0,6,1.8,7.3,4.6l-2.1,0.8l4.3,3.5
			c0.4,0.3,0.9,0.1,1-0.4l0.9-5.4L20,8.1L20,8.1z"/>
		<path class="st2" d="M10.2,11.2H5.9v1.6H11c0.5,0,0.8-0.4,0.8-0.8V5.2h-1.6V11.2L10.2,11.2z"/>
	</g>
</g>
<rect y="0" class="st0" width="24" height="24"/>
</svg>
