<svg width="13" height="15" viewBox="0 0 13 15" fill="none" xmlns="http://www.w3.org/2000/svg">
<path fill-rule="evenodd" clip-rule="evenodd" d="M6.61366 0.0453449C5.65374 0.0129894 4.23551 0.305183 3.03945 1.28395C1.82399 2.27859 0.890154 3.93959 0.855143 6.537L0.855097 6.537V6.54374V9.87405C0.855097 9.951 0.837336 10.0269 0.803196 10.0959L0.330468 11.0508C-0.163082 12.0478 0.562298 13.2163 1.67477 13.2163H4.10507C4.20883 13.5132 4.38143 13.8431 4.64306 14.1366C5.0526 14.596 5.67369 14.956 6.53792 14.956C8.00855 14.956 8.80981 13.9434 9.13725 13.2163H11.2739C12.4635 13.2163 13.1797 11.8978 12.5323 10.8999L12.0031 10.0842C11.9505 10.0032 11.9225 9.90863 11.9225 9.81205V6.5625C11.9941 5.58608 11.8224 4.11394 11.0674 2.80359C10.2931 1.45963 8.91673 0.311043 6.65448 0.0483972C6.64092 0.046823 6.62731 0.0458047 6.61366 0.0453449ZM7.98742 13.2163H5.20335C5.25526 13.3032 5.317 13.3898 5.38952 13.4711C5.62593 13.7363 5.98287 13.956 6.53792 13.956C7.22915 13.956 7.70073 13.5991 7.98742 13.2163ZM1.8551 9.87405V6.54715C1.88739 4.20855 2.71433 2.84216 3.67276 2.05785C4.64246 1.26432 5.7999 1.02339 6.5599 1.04416C8.47821 1.27276 9.57836 2.22222 10.201 3.30282C10.8401 4.41206 10.9873 5.6848 10.924 6.50526C10.923 6.51806 10.9225 6.5309 10.9225 6.54374V9.81205C10.9225 10.1018 11.0065 10.3854 11.1642 10.6284L11.6934 11.4442C11.9092 11.7768 11.6704 12.2163 11.2739 12.2163H1.67477C1.30394 12.2163 1.06215 11.8268 1.22667 11.4945L1.6994 10.5395C1.80181 10.3326 1.8551 10.1049 1.8551 9.87405Z" fill="#E7382D"/>
</svg>
