<svg width="238" height="229" viewBox="0 0 238 229" fill="none" xmlns="http://www.w3.org/2000/svg">
<rect width="238" height="229" rx="10" fill="black" fill-opacity="0.6"/>
<g clip-path="url(#clip0_645_23501)">
<path fill-rule="evenodd" clip-rule="evenodd" d="M112.721 118.326C112.236 117.834 111.451 117.834 110.967 118.326C110.482 118.818 110.482 119.616 110.967 120.108L118.18 127.435L118.915 128.181C118.993 128.26 119.121 128.26 119.2 128.181L119.918 127.451C119.943 127.427 119.967 127.403 119.991 127.377L127.228 120.026C127.712 119.534 127.712 118.736 127.228 118.244C126.744 117.752 125.959 117.752 125.474 118.244L120.661 123.133C120.535 123.261 120.318 123.172 120.318 122.993L120.318 99.6093C120.318 98.9136 119.763 98.3496 119.078 98.3496C118.393 98.3496 117.838 98.9136 117.838 99.6093L117.838 123.036C117.838 123.215 117.621 123.304 117.495 123.176L112.721 118.326Z" fill="#FF5046"/>
<path fill-rule="evenodd" clip-rule="evenodd" d="M125.474 44.5663C125.958 45.0583 126.743 45.0583 127.228 44.5663C127.712 44.0744 127.712 43.2768 127.228 42.7848L120.014 35.458L119.28 34.712C119.201 34.6324 119.073 34.6324 118.995 34.712L118.276 35.4417C118.251 35.4653 118.227 35.4899 118.204 35.5155L110.966 42.8668C110.482 43.3587 110.482 44.1563 110.966 44.6483C111.451 45.1402 112.236 45.1402 112.72 44.6483L117.533 39.7592C117.659 39.6317 117.876 39.7206 117.876 39.8996L117.876 63.2833C117.876 63.979 118.431 64.543 119.116 64.543C119.801 64.543 120.356 63.979 120.356 63.2833L120.356 39.8569C120.356 39.6779 120.573 39.589 120.699 39.7165L125.474 44.5663Z" fill="#FF5046"/>
<path d="M154.089 99.2992C151.617 101.56 148.355 102.762 145.003 102.647C140.052 102.537 126.302 98.6664 126.302 98.6664C126.302 98.6664 123.548 98.0575 123.828 95.5966C124.109 93.1358 125.202 92.5662 127.641 92.585C130.058 92.5995 133.523 93.1328 135.455 93.2671L119.115 76.9274C119.115 76.9274 116.646 74.5486 119.005 72.1578C121.365 69.767 123.759 72.2822 123.759 72.2822L130.617 79.1402C130.312 78.8377 130.072 78.4772 129.909 78.0802C129.746 77.6832 129.665 77.2577 129.67 76.829C129.675 76.4003 129.766 75.9771 129.938 75.5846C130.109 75.1921 130.358 74.8382 130.669 74.544C133.03 72.1504 135.421 74.672 135.421 74.672L141.509 80.7604L137.615 76.8667C137.615 76.8667 135.147 74.4921 137.508 72.0963C139.868 69.7006 142.261 72.2208 142.261 72.2208L144.456 74.4154C143.146 72.9742 143.31 70.6603 145.826 69.4161C147.89 68.3935 149.791 70.6402 149.791 70.6402C149.791 70.6402 157.612 79.2622 158.372 80.2093C159.131 81.1564 160.311 82.2983 161.014 86.8451C161.718 91.3919 157.745 95.6367 157.745 95.6367L154.089 99.2992Z" fill="white"/>
</g>
<path d="M63.455 149.888V151.344C63.455 153.504 62.047 155.408 59.951 156.16L60.623 157.152C62.255 156.496 63.503 155.2 64.095 153.52C64.687 155.008 65.903 156.176 67.439 156.752L68.079 155.792C66.079 155.088 64.655 153.344 64.655 151.424V149.888H63.455ZM61.823 160.624C61.823 162.224 63.551 163.152 66.415 163.152C69.263 163.152 71.007 162.224 71.007 160.624C71.007 159.024 69.263 158.08 66.415 158.08C63.551 158.08 61.823 159.024 61.823 160.624ZM63.007 160.624C63.007 159.616 64.319 159.056 66.415 159.056C68.511 159.056 69.807 159.616 69.807 160.624C69.807 161.616 68.511 162.192 66.415 162.192C64.319 162.192 63.007 161.616 63.007 160.624ZM69.647 157.68H70.879V153.856H72.959V152.832H70.879V149.168H69.647V157.68ZM83.5354 149.168V163.2H84.7354V155.984H87.0554V154.96H84.7354V149.168H83.5354ZM73.9194 152.432H82.1914V151.424H78.7194V149.344H77.4714V151.424H73.9194V152.432ZM74.7354 156.816C74.7354 158.72 76.1594 160.016 78.1114 160.016C80.0794 160.016 81.5194 158.72 81.5194 156.816C81.5194 154.928 80.0794 153.616 78.1114 153.616C76.1594 153.616 74.7354 154.928 74.7354 156.816ZM75.8874 156.816C75.8874 155.552 76.8314 154.624 78.1114 154.624C79.4074 154.624 80.3674 155.552 80.3674 156.816C80.3674 158.096 79.4074 159.008 78.1114 159.008C76.8314 159.008 75.8874 158.096 75.8874 156.816ZM87.9838 160.432V161.44H100.672V160.432H94.8958V157.76H99.4238V156.768H90.7838V154.432H99.1038V150.208H89.5518V151.216H97.8878V153.456H89.5838V157.76H93.6958V160.432H87.9838ZM115.208 149.168V163.2H116.408V156.16H118.648V155.136H116.408V149.168H115.208ZM105.496 159.456L105.688 160.48C108.12 160.48 111.416 160.448 114.44 159.92L114.328 159.024C113.128 159.2 111.832 159.296 110.536 159.36V157.856C112.152 157.664 113.208 156.688 113.208 155.296C113.208 153.728 111.88 152.704 109.928 152.704C107.976 152.704 106.648 153.728 106.648 155.296C106.648 156.704 107.72 157.664 109.336 157.856V159.408C107.96 159.456 106.632 159.456 105.496 159.456ZM105.736 151.856H114.12V150.88H110.536V149.184H109.336V150.88H105.736V151.856ZM107.784 155.296C107.784 154.32 108.632 153.648 109.928 153.648C111.208 153.648 112.072 154.32 112.072 155.296C112.072 156.272 111.208 156.928 109.928 156.928C108.632 156.928 107.784 156.272 107.784 155.296ZM120.296 150.4V156.928H126.648V155.664H129.928V159.408H131.144V149.184H129.928V151.664H126.648V150.4H120.296ZM121.464 155.952V151.376H125.48V155.952H121.464ZM122.184 162.864H131.48V161.856H123.384V158.496H122.184V162.864ZM126.648 154.656V152.672H129.928V154.656H126.648ZM139.944 149.424C136.856 149.424 135.048 150.272 135.048 151.84C135.048 153.408 136.856 154.288 139.944 154.288C143.032 154.288 144.856 153.408 144.856 151.84C144.856 150.272 143.032 149.424 139.944 149.424ZM133.624 156.224H146.28V155.248H133.624V156.224ZM135.16 158.384H143.464V159.68H135.208V163.008H145.08V162.064H136.392V160.576H144.648V157.472H135.16V158.384ZM136.28 151.84C136.28 150.896 137.656 150.336 139.944 150.336C142.248 150.336 143.608 150.896 143.608 151.84C143.608 152.816 142.248 153.344 139.944 153.344C137.656 153.344 136.28 152.816 136.28 151.84ZM152.032 149.952V155.664H158.544V149.952H152.032ZM153.2 154.672V150.928H157.344V154.672H153.2ZM153.712 158.064H161.552V159.536H153.744V163.008H163.232V162.032H154.944V160.448H162.752V157.104H153.712V158.064ZM161.536 156.384H162.752V149.184H161.536V156.384ZM169.025 150.256C166.993 150.256 165.553 152.144 165.553 155.12C165.553 158.096 166.993 160 169.025 160C170.961 160 172.369 158.272 172.497 155.536H175.601V163.2H176.801V149.152H175.601V154.544H172.497C172.321 151.904 170.929 150.256 169.025 150.256ZM166.689 155.12C166.689 152.832 167.649 151.344 169.025 151.344C170.385 151.344 171.329 152.832 171.329 155.12C171.329 157.424 170.385 158.928 169.025 158.928C167.649 158.928 166.689 157.424 166.689 155.12ZM26.9694 174.496V183.728H28.0254C30.6974 183.728 32.3934 183.632 34.4254 183.248L34.2974 182.24C32.3614 182.64 30.7134 182.704 28.1694 182.704V175.52H33.3374V174.496H26.9694ZM32.5054 179.264H36.5534V187.2H37.7694V173.152H36.5534V178.272H32.5054V179.264ZM53.5533 173.168V180.336H54.7693V177.344H56.8493V176.352H54.7693V173.168H53.5533ZM44.4973 179.808H50.9133V174.096H44.4973V179.808ZM45.3932 186.816H46.0493C46.9773 186.816 48.2733 186.736 49.6333 186.304L49.4413 185.312C48.4653 185.664 47.3773 185.776 46.5773 185.792V181.632H45.3932V186.816ZM45.6813 178.816V175.072H49.7293V178.816H45.6813ZM49.1373 182.688H56.1613V181.76H53.2493V180.512H52.0653V181.76H49.1373V182.688ZM50.0653 185.168C50.0653 186.4 51.1373 187.168 52.6573 187.168C54.1613 187.168 55.2333 186.4 55.2333 185.168C55.2333 183.968 54.1613 183.216 52.6573 183.216C51.1373 183.216 50.0653 183.968 50.0653 185.168ZM51.1533 185.168C51.1533 184.512 51.7613 184.096 52.6573 184.096C53.5373 184.096 54.1453 184.512 54.1453 185.168C54.1453 185.856 53.5373 186.288 52.6573 186.288C51.7613 186.288 51.1533 185.856 51.1533 185.168ZM57.9056 180.56V181.552H70.5616V180.56H57.9056ZM59.3296 176.432C59.3296 178.176 61.2176 179.216 64.2256 179.216C67.2336 179.216 69.1376 178.176 69.1376 176.432C69.1376 174.688 67.2336 173.664 64.2256 173.664C61.2176 173.664 59.3296 174.688 59.3296 176.432ZM59.5536 186.864H69.1376V185.856H60.7536V182.816H59.5536V186.864ZM60.5616 176.432C60.5616 175.312 62.0176 174.64 64.2256 174.64C66.4656 174.64 67.8896 175.312 67.8896 176.432C67.8896 177.536 66.4656 178.224 64.2256 178.224C62.0176 178.224 60.5616 177.536 60.5616 176.432ZM76.2335 174.784V175.76H87.4975V174.784H82.4895V173.072H81.2895V174.784H76.2335ZM75.5775 183.248H81.2895V187.2H82.4895V183.248H88.2655V182.256H75.5775V183.248ZM77.3695 178.928C77.3695 180.416 79.0495 181.264 81.8975 181.264C84.7295 181.264 86.4255 180.416 86.4255 178.928C86.4255 177.44 84.7295 176.608 81.8975 176.608C79.0495 176.608 77.3695 177.44 77.3695 178.928ZM78.6335 178.928C78.6335 178.048 79.8335 177.536 81.8975 177.536C83.9775 177.536 85.1615 178.048 85.1615 178.928C85.1615 179.808 83.9775 180.32 81.8975 180.32C79.8335 180.32 78.6335 179.808 78.6335 178.928ZM99.8499 173.152V187.184H101.05V173.152H99.8499ZM89.7699 183.568L90.4099 184.544C95.0659 182.256 96.9379 178.704 96.9379 174.672H90.3939V175.68H95.7059C95.4499 179.04 93.5299 181.76 89.7699 183.568ZM103.546 179.712V180.624H116.234V179.712H103.546ZM105.066 182.688H113.45V183.904H105.098V186.976H115.082V186.112H106.282V184.752H114.634V181.808H105.066V182.688ZM105.162 174.464H113.402V175.632H105.194V178.624H114.858V177.728H106.378V176.48H114.602V173.6H105.162V174.464ZM130.818 173.184V182.56H132.05V178.448H134.13V177.44H132.05V173.184H130.818ZM121.138 181.152L121.314 182.128C123.73 182.128 127.074 182.112 130.082 181.584L129.986 180.704C128.754 180.88 127.442 180.992 126.13 181.056V180.048C127.746 179.904 128.77 179.152 128.77 178.016C128.77 176.736 127.49 175.936 125.522 175.936C123.554 175.936 122.274 176.736 122.274 178.016C122.274 179.168 123.298 179.904 124.93 180.048V181.104C123.57 181.152 122.258 181.152 121.138 181.152ZM121.506 175.392H129.554V174.448H126.13V173.04H124.93V174.448H121.506V175.392ZM122.866 184.256H130.818V187.2H132.05V183.28H122.866V184.256ZM123.426 178.016C123.426 177.248 124.226 176.784 125.522 176.784C126.786 176.784 127.618 177.248 127.618 178.016C127.618 178.752 126.786 179.232 125.522 179.232C124.226 179.232 123.426 178.752 123.426 178.016ZM145.443 173.184V183.424H146.659V173.184H145.443ZM135.539 177.6C135.539 179.616 137.107 181.04 139.171 181.04C141.267 181.04 142.819 179.616 142.819 177.6C142.819 175.584 141.267 174.16 139.171 174.16C137.107 174.16 135.539 175.584 135.539 177.6ZM136.723 177.6C136.723 176.208 137.779 175.216 139.171 175.216C140.579 175.216 141.635 176.208 141.635 177.6C141.635 178.992 140.579 179.984 139.171 179.984C137.779 179.984 136.723 178.992 136.723 177.6ZM137.715 186.864H147.107V185.856H138.915V182.384H137.715V186.864ZM149.187 175.584V176.592H156.147V175.584H153.267V173.584H152.067V175.584H149.187ZM149.667 180.72C149.667 182.624 150.931 183.904 152.659 183.904C154.419 183.904 155.667 182.624 155.667 180.72C155.667 178.864 154.419 177.552 152.659 177.552C150.931 177.552 149.667 178.864 149.667 180.72ZM150.771 180.72C150.771 179.504 151.555 178.592 152.659 178.592C153.779 178.592 154.579 179.504 154.579 180.72C154.579 182 153.779 182.896 152.659 182.896C151.555 182.896 150.771 182 150.771 180.72ZM156.851 186.48H158.019V180.096H159.875V187.184H161.027V173.152H159.875V179.088H158.019V173.504H156.851V186.48ZM166.859 184.368V185.392H179.547V184.368H173.771V181.328H178.011V174.16H176.811V176.704H169.579V174.16H168.363V181.328H172.571V184.368H166.859ZM169.579 180.32V177.712H176.811V180.32H169.579ZM186.363 178.224V179.216H188.731V186.464H189.867V173.488H188.731V178.224H186.363ZM180.699 183.232L181.483 184.144C182.875 183.296 183.899 181.696 184.411 179.84C184.907 181.536 185.867 183.04 187.211 183.84L187.899 182.896C186.075 181.792 184.987 179.376 184.987 177.152V174.496H183.803V177.2C183.803 179.616 182.619 182.096 180.699 183.232ZM191.579 187.184H192.763V173.152H191.579V187.184ZM194.828 184.368V185.392H207.516V184.368H204.364V180.544C205.532 179.92 206.236 178.928 206.236 177.68C206.236 175.488 204.124 174.08 201.148 174.08C198.188 174.08 196.076 175.488 196.076 177.68C196.076 178.928 196.78 179.936 197.964 180.56V184.368H194.828ZM197.244 177.68C197.244 176.096 198.891 175.04 201.148 175.04C203.42 175.04 205.036 176.096 205.036 177.68C205.036 179.248 203.42 180.288 201.148 180.288C198.891 180.288 197.244 179.248 197.244 177.68ZM199.164 184.368V181.008C199.756 181.168 200.428 181.248 201.148 181.248C201.868 181.248 202.54 181.168 203.148 181.008V184.368H199.164ZM209.18 184.768V186H210.46V184.768H209.18Z" fill="white"/>
<defs>
<clipPath id="clip0_645_23501">
<rect width="94" height="95" fill="white" transform="translate(72 34)"/>
</clipPath>
</defs>
</svg>
